<?xml version="1.0"?>
<svg xmlns="http://www.w3.org/2000/svg" xmlns:xlink="http://www.w3.org/1999/xlink" xmlns:svgjs="http://svgjs.com/svgjs" version="1.1" width="512" height="512" x="0" y="0" viewBox="0 0 163.537 163.538" style="enable-background:new 0 0 512 512" xml:space="preserve" class=""><g>
<g xmlns="http://www.w3.org/2000/svg">
	<path d="M163.226,47.876c-4.787-46.347-56.53-45.631-81.462-23.259C56.832,2.246,5.113,1.53,0.313,47.876   c-6.191,59.663,81.45,105.892,81.45,105.892S169.402,107.545,163.226,47.876z M136.396,93.159   c-1.176,1.218-2.754,1.833-4.338,1.833c-1.514,0-3.038-0.568-4.221-1.715l-1.063-1.034c-7.69,8.328-24.648,23.679-45.017,23.679   c-20.375,0-37.321-15.351-45.02-23.679l-1.052,1.028c-1.177,1.146-2.701,1.714-4.221,1.714c-1.578,0-3.153-0.614-4.338-1.832   c-2.332-2.399-2.276-6.229,0.121-8.559l11.373-11.053c2.396-2.341,6.239-2.276,8.559,0.124c2.329,2.394,2.276,6.224-0.121,8.559   l-1.617,1.572c6.307,6.845,20.487,20.02,36.322,20.02c15.906,0,30.051-13.163,36.334-20.014l-1.632-1.578   c-2.394-2.335-2.441-6.165-0.118-8.559c2.316-2.4,6.159-2.458,8.559-0.124l11.372,11.053   C138.679,86.929,138.731,90.753,136.396,93.159z" fill="#ffffff" data-original="#000000" style="" class=""/>
</g>
<g xmlns="http://www.w3.org/2000/svg">
</g>
<g xmlns="http://www.w3.org/2000/svg">
</g>
<g xmlns="http://www.w3.org/2000/svg">
</g>
<g xmlns="http://www.w3.org/2000/svg">
</g>
<g xmlns="http://www.w3.org/2000/svg">
</g>
<g xmlns="http://www.w3.org/2000/svg">
</g>
<g xmlns="http://www.w3.org/2000/svg">
</g>
<g xmlns="http://www.w3.org/2000/svg">
</g>
<g xmlns="http://www.w3.org/2000/svg">
</g>
<g xmlns="http://www.w3.org/2000/svg">
</g>
<g xmlns="http://www.w3.org/2000/svg">
</g>
<g xmlns="http://www.w3.org/2000/svg">
</g>
<g xmlns="http://www.w3.org/2000/svg">
</g>
<g xmlns="http://www.w3.org/2000/svg">
</g>
<g xmlns="http://www.w3.org/2000/svg">
</g>
</g></svg>
