<?xml version="1.0"?>
<svg xmlns="http://www.w3.org/2000/svg" xmlns:xlink="http://www.w3.org/1999/xlink" xmlns:svgjs="http://svgjs.com/svgjs" version="1.1" width="512" height="512" x="0" y="0" viewBox="0 0 512 512" style="enable-background:new 0 0 512 512" xml:space="preserve" class=""><g><g xmlns="http://www.w3.org/2000/svg"><path d="m229.716 261.071 193.039-193.04c5.863-5.863 15.351-5.863 21.213 0 5.863 5.863 5.863 15.351 0 21.213l-193.039 193.04c2.847 5.97 4.499 12.478 4.499 19.283v61.071l252.18-252.18c2.817-2.817 4.392-6.629 4.392-10.607v-84.853c0-8.286-6.712-14.998-14.998-14.998h-84.853c-3.977 0-7.789 1.574-10.607 4.392l-252.18 252.18h61.071c6.806-.001 13.313 1.652 19.283 4.499z" fill="#ffffff" data-original="#000000" style="" class=""/><path d="m284.68 397.026c-5.863-5.863-15.351-5.863-21.213 0l-10.607 10.607-27.428-27.428v-78.638c0-8.286-6.712-14.998-14.998-14.998h-78.638l-27.428-27.428 10.607-10.607c5.863-5.863 5.863-15.351 0-21.213-5.863-5.863-15.351-5.863-21.213 0-3.17 3.17-45.495 45.495-42.426 42.426-5.863 5.863-5.863 15.351 0 21.213l169.704 169.706c5.863 5.863 15.351 5.863 21.213 0 2.763-2.763 45.635-45.635 42.426-42.426 5.863-5.863 5.863-15.351.001-21.214z" fill="#ffffff" data-original="#000000" style="" class=""/><path d="m93.761 460.666 42.426-42.426-42.426-42.426-42.426 42.426c-11.694-11.694-30.732-11.694-42.426 0-5.76 5.758-8.919 13.289-8.909 21.212v42.426c-.01 7.924 3.149 15.454 8.908 21.213s13.289 8.918 21.213 8.908h42.426c7.924.01 15.454-3.149 21.213-8.908 11.695-11.693 11.695-30.731.001-42.425z" fill="#ffffff" data-original="#000000" style="" class=""/></g></g></svg>
